<?xml version="1.0" standalone="no"?>
<!DOCTYPE svg PUBLIC "-//W3C//DTD SVG 20010904//EN"
 "http://www.w3.org/TR/2001/REC-SVG-20010904/DTD/svg10.dtd">
<svg version="1.0" xmlns="http://www.w3.org/2000/svg"
 width="573.000000pt" height="573.000000pt" viewBox="0 0 573.000000 573.000000"
 preserveAspectRatio="xMidYMid meet">
<metadata>
Created by potrace 1.11, written by Peter Selinger 2001-2013
</metadata>
<g transform="translate(0.000000,573.000000) scale(0.100000,-0.100000)"
fill="#000000" stroke="none">
<path d="M2799 5363 c-12 -21 -30 -50 -38 -64 -100 -167 -137 -219 -158 -219
-12 0 -23 4 -25 9 -5 14 -240 261 -248 261 -4 0 -18 -28 -31 -62 -12 -35 -29
-79 -38 -98 -8 -19 -15 -37 -16 -40 -4 -22 -31 -92 -47 -123 -14 -27 -25 -38
-36 -35 -10 3 -57 34 -105 69 -49 35 -96 69 -105 74 -9 6 -19 12 -22 15 -3 3
-22 18 -43 33 l-37 28 -9 -23 c-4 -13 -11 -45 -15 -71 -4 -27 -9 -59 -12 -70
-2 -12 -7 -38 -10 -57 -2 -19 -7 -46 -9 -60 -3 -14 -7 -40 -10 -59 -3 -19 -8
-38 -11 -43 -9 -14 -38 -9 -90 16 -166 80 -278 125 -284 116 -7 -11 -4 -116 4
-135 3 -8 1 -17 -4 -20 -5 -3 -5 -18 -2 -33 4 -15 7 -62 7 -106 0 -62 -4 -81
-16 -89 -12 -8 -58 0 -170 27 -203 49 -209 50 -209 32 0 -8 9 -54 21 -103 25
-104 28 -120 35 -153 3 -14 9 -40 15 -57 6 -18 8 -42 4 -52 -6 -20 -13 -20
-201 -15 -107 3 -194 2 -194 -1 0 -9 45 -113 93 -217 25 -52 48 -104 51 -115
8 -25 -16 -53 -47 -54 -55 -1 -320 -48 -329 -57 -5 -5 14 -39 42 -76 27 -37
50 -71 50 -76 0 -4 4 -10 8 -12 19 -7 109 -151 105 -166 -3 -11 -50 -33 -141
-66 -75 -27 -141 -52 -147 -56 -5 -4 -22 -10 -37 -14 -16 -3 -28 -11 -28 -17
0 -10 48 -58 219 -216 61 -57 62 -76 6 -108 -179 -102 -289 -178 -273 -190 2
-1 74 -45 160 -99 87 -53 158 -103 158 -111 0 -16 -6 -22 -158 -164 -62 -58
-112 -108 -112 -113 0 -9 38 -26 170 -74 159 -59 179 -68 183 -86 5 -17 -21
-56 -144 -221 -25 -34 -51 -72 -57 -84 -14 -25 -8 -28 63 -38 22 -4 51 -8 65
-11 14 -2 40 -7 59 -10 18 -3 43 -8 55 -10 11 -2 41 -7 66 -10 45 -6 70 -19
70 -35 0 -9 -27 -72 -82 -189 -44 -94 -68 -150 -68 -160 0 -5 46 -7 103 -5
221 7 275 7 287 0 11 -7 11 -21 -4 -88 -9 -38 -47 -198 -53 -222 -3 -11 -6
-33 -7 -50 -1 -31 -2 -31 59 -21 6 1 16 5 22 9 7 5 13 6 13 4 0 -2 26 2 58 10
31 8 75 19 97 24 22 5 57 13 78 18 61 15 66 2 61 -141 -3 -68 -6 -151 -8 -186
-1 -34 0 -64 2 -66 4 -5 121 46 276 120 53 25 74 30 88 23 10 -5 19 -14 19
-19 1 -6 2 -13 3 -17 1 -5 6 -35 11 -68 5 -33 9 -62 10 -65 5 -20 19 -118 18
-132 0 -10 4 -18 9 -18 5 0 6 -5 3 -10 -10 -17 5 -52 21 -46 8 3 77 50 154
106 77 55 149 100 159 100 20 0 24 -8 102 -220 23 -63 47 -121 52 -128 8 -9
34 13 106 90 156 166 169 178 185 172 9 -3 32 -34 53 -68 20 -33 53 -86 72
-116 20 -30 34 -58 33 -62 -1 -5 2 -8 7 -8 5 0 14 -13 21 -30 12 -28 50 -44
50 -20 0 5 16 32 35 59 19 26 35 51 35 55 0 4 23 40 50 82 28 41 50 79 50 84
0 5 9 14 21 20 22 13 25 10 204 -181 39 -41 75 -78 82 -82 7 -5 20 17 38 65
15 40 33 87 39 103 7 17 25 65 40 107 27 75 47 96 71 75 15 -12 194 -140 213
-152 9 -5 22 -16 30 -23 21 -19 53 -34 59 -28 6 5 20 76 28 136 3 19 7 46 10
60 3 14 7 43 10 65 4 22 8 49 10 60 2 11 4 25 4 32 1 7 9 17 19 22 14 7 34 2
79 -19 128 -61 264 -120 276 -120 14 0 14 23 4 273 -6 138 -13 134 158 92 11
-2 61 -13 110 -24 50 -11 98 -23 108 -26 24 -10 22 13 -14 163 -17 70 -33 138
-35 152 -3 14 -7 32 -9 40 -3 8 -1 21 4 29 9 14 21 15 273 6 114 -3 128 2 110
38 -6 12 -27 58 -48 102 -20 44 -49 108 -65 143 -39 85 -33 94 73 112 46 7 90
14 98 15 22 3 102 17 125 22 11 3 28 5 37 5 35 -1 27 19 -44 118 -40 56 -77
109 -83 118 -5 9 -12 19 -15 22 -19 17 -46 67 -43 80 2 8 32 26 66 39 313 118
300 111 279 135 -9 11 -28 30 -42 42 -14 12 -45 41 -70 64 -164 154 -156 145
-142 167 7 11 140 96 264 170 27 15 48 32 48 36 0 14 -22 30 -100 76 -41 25
-77 47 -80 51 -3 4 -15 10 -27 14 -13 4 -23 12 -23 17 0 5 -5 9 -12 9 -16 0
-78 49 -78 62 0 11 82 92 208 206 34 31 62 62 62 68 0 7 -17 18 -37 25 -21 6
-44 16 -50 22 -7 5 -13 6 -13 3 0 -4 -10 -1 -22 6 -13 6 -27 13 -33 15 -5 1
-50 17 -98 34 -106 38 -118 55 -77 109 100 131 187 259 181 269 -7 10 -63 23
-161 37 -78 10 -149 22 -180 29 -8 2 -18 4 -22 4 -21 3 -14 45 17 109 19 40
35 74 35 77 0 2 18 43 40 90 22 47 40 90 40 96 0 8 -20 13 -41 11 -4 -1 -81
-3 -172 -6 -189 -6 -195 -4 -178 61 6 21 12 49 15 63 2 14 5 25 6 25 1 0 3 7
5 15 2 8 11 49 21 90 9 41 19 90 22 109 4 32 4 33 -24 27 -16 -4 -40 -9 -54
-11 -14 -3 -85 -20 -158 -38 -159 -39 -160 -39 -156 68 10 255 10 295 0 298
-10 3 -42 -10 -229 -97 -90 -41 -117 -49 -134 -38 -10 6 -28 92 -48 227 -25
171 -20 167 -107 102 -31 -23 -66 -49 -78 -57 -13 -8 -52 -37 -88 -63 -36 -26
-72 -45 -80 -42 -7 3 -17 5 -22 5 -4 0 -10 12 -13 28 -6 32 -111 310 -121 320
-7 6 -89 -77 -216 -215 -26 -29 -56 -53 -66 -53 -18 0 -42 34 -134 189 -50 84
-83 131 -90 131 -4 0 -18 -17 -31 -37z m127 -537 c19 -20 35 -42 35 -49 1 -6
3 -23 4 -36 6 -55 -30 -119 -81 -148 -31 -17 -117 -9 -148 13 -37 27 -66 91
-61 137 13 125 164 175 251 83z m-306 -328 c122 -127 159 -153 208 -143 59 11
46 1 254 200 72 70 78 74 115 69 21 -2 46 -7 55 -10 9 -3 26 -7 37 -9 46 -9
211 -69 296 -108 302 -138 570 -368 758 -650 60 -89 63 -100 39 -150 -80 -172
-156 -357 -159 -391 -4 -32 1 -49 19 -76 28 -41 47 -51 298 -160 41 -18 79
-36 85 -41 12 -12 15 -40 16 -179 1 -123 -4 -180 -26 -290 -3 -14 -7 -36 -10
-50 -39 -208 -186 -577 -262 -658 -7 -7 -13 -17 -13 -22 0 -5 -6 -15 -12 -22
-7 -7 -33 -39 -57 -70 -23 -32 -64 -80 -89 -108 -53 -58 -40 -58 -244 -12
-153 34 -191 33 -235 -10 -27 -26 -36 -44 -48 -98 -1 -3 -4 -18 -8 -35 -4 -16
-10 -40 -12 -53 -3 -12 -7 -30 -9 -41 -2 -10 -7 -34 -10 -52 -3 -19 -10 -49
-15 -68 -6 -18 -9 -38 -8 -44 5 -27 -237 -119 -372 -142 -19 -3 -37 -8 -41
-10 -3 -2 -30 -6 -60 -9 -30 -4 -71 -8 -90 -11 -19 -3 -69 -7 -111 -10 l-77
-4 11 29 c6 17 15 30 19 30 4 0 8 4 8 8 0 9 100 167 120 189 6 7 8 13 6 13 -5
0 31 59 52 85 8 11 225 356 245 390 7 11 14 22 17 25 3 3 19 27 34 54 51 89 2
81 533 81 l472 -1 -11 21 c-6 11 -19 31 -28 45 -22 31 -92 139 -105 162 -5 9
-25 43 -44 75 -19 32 -37 60 -41 63 -3 3 -28 41 -55 85 -27 44 -64 101 -82
127 -18 26 -33 50 -33 53 0 3 -24 42 -54 88 -47 72 -422 665 -530 837 -22 36
-44 67 -48 68 -5 2 -8 8 -8 13 0 5 -19 40 -43 77 -93 145 -186 291 -233 367
-27 44 -52 85 -57 90 -21 26 -127 197 -127 206 0 5 -4 9 -10 9 -5 0 -10 8 -10
17 0 20 -33 -28 -210 -312 -8 -13 -35 -56 -60 -95 -25 -39 -52 -82 -60 -95 -8
-13 -46 -73 -83 -132 -37 -59 -101 -160 -142 -223 -41 -63 -84 -131 -95 -150
-11 -19 -49 -80 -84 -135 -36 -55 -84 -131 -107 -170 -23 -38 -45 -72 -49 -75
-4 -3 -20 -29 -36 -57 -16 -29 -32 -53 -36 -53 -5 0 -8 -4 -8 -10 0 -5 -24
-47 -54 -92 -29 -46 -124 -195 -211 -333 -86 -137 -175 -276 -196 -308 -21
-32 -39 -60 -39 -63 0 -3 -14 -25 -30 -50 -17 -24 -30 -45 -28 -45 2 -1 216
-3 475 -4 260 -1 474 -3 477 -6 2 -2 36 -56 76 -119 40 -63 93 -145 117 -182
23 -37 43 -70 43 -73 0 -3 5 -11 11 -18 6 -7 53 -79 105 -162 145 -228 157
-248 172 -275 7 -14 20 -32 28 -41 8 -8 14 -18 14 -21 0 -12 -263 10 -345 29
-11 3 -38 8 -60 13 -64 13 -236 71 -280 93 -22 11 -42 20 -45 19 -22 -2 -48
79 -77 243 -12 70 -34 142 -51 165 -43 58 -99 65 -237 28 -22 -6 -56 -13 -75
-15 -19 -3 -53 -11 -77 -18 l-43 -13 -46 48 c-26 27 -71 82 -100 122 -30 40
-58 78 -64 85 -5 7 -10 15 -10 19 0 3 -8 18 -19 32 -65 94 -161 308 -205 458
-32 110 -37 130 -52 229 -2 17 -6 44 -9 60 -9 49 -13 306 -6 360 l6 50 168 75
c92 41 179 87 193 101 16 16 28 42 31 68 6 44 -4 73 -97 261 -45 92 -46 97
-35 140 69 266 258 491 590 702 75 48 232 126 305 153 49 18 222 70 255 77 50
10 64 1 185 -124z m-1471 -987 c56 -40 75 -127 42 -188 -16 -32 -71 -70 -107
-76 -85 -13 -173 66 -167 151 0 6 1 21 2 32 1 23 57 88 85 101 35 15 111 4
145 -20z m3484 11 c105 -44 123 -189 30 -256 -38 -28 -110 -32 -153 -8 -41 22
-80 84 -79 127 0 66 53 130 120 144 39 9 44 8 82 -7z m-2828 -2082 c103 -56
86 -216 -27 -263 -20 -8 -38 -14 -40 -11 -4 4 -44 12 -66 13 -15 1 -65 49 -79
76 -13 25 -11 92 4 125 18 40 57 70 104 78 47 9 58 7 104 -18z m2170 3 c33
-10 74 -65 81 -109 14 -93 -60 -174 -154 -169 -89 5 -140 75 -133 183 1 28 71
99 103 105 25 4 71 0 103 -10z"/>
</g>
</svg>
